Coordinates
nRows=124
nColumns=2
inDegrees=yes
endheader
time	ankle_angle_r	
3.00605	 -5.267933	
3.07762	 -5.275682	
3.14919	 -5.272416	
3.22077	 -5.264282	
3.29234	 -5.183506	
3.36391	 -5.268973	
3.43548	 -5.243562	
3.50706	 -5.142212	
3.57863	 -5.091806	
3.6502	 -5.257450	
3.72177	 -5.218506	
3.79335	 -5.138831	
3.86492	 -5.212359	
3.93649	 -5.273186	
4.00806	 -5.288237	
4.07964	 -5.250741	
4.15121	 -5.250324	
4.22278	 -5.279541	
4.29435	 -5.272146	
4.36593	 -5.294800	
4.4375	 -5.226317	
4.50907	 -5.286781	
4.58065	 -5.325317	
4.65222	 -5.257459	
4.72379	 -5.270898	
4.79536	 -5.233765	
4.86694	 -5.258082	
4.93851	 -5.209239	
5.01008	 -5.126953	
5.08165	 -5.249023	
5.15323	 -5.213138	
5.2248	 -5.218506	
5.29637	 -5.187988	
5.36794	 -5.172729	
5.43952	 -5.187988	
5.51109	 -5.203247	
5.58266	 -5.187988	
5.65423	 -5.218506	
5.72581	 -5.283245	
5.79738	 -5.269055	
5.86895	 -5.218506	
5.94052	 -5.267362	
6.0121	 -5.282413	
6.08367	 -5.251687	
6.15524	 -5.236220	
6.22681	 -5.187988	
6.29839	 -5.187988	
6.36996	 -5.100098	
6.44153	 -5.096436	
6.5131	 -5.125538	
6.58468	 -5.220920	
6.65625	 -5.231767	
6.72782	 -5.033818	
6.7994	 -5.157471	
6.87097	 -5.096436	
6.94254	 -5.142045	
7.01411	 -5.035400	
7.08569	 -5.142212	
7.15726	 -5.081634	
7.22883	 -5.081842	
7.3004	 -5.158344	
7.37198	 -5.157471	
7.44355	 -5.231186	
7.51512	 -5.249023	
7.58669	 -5.204952	
7.65827	 -5.249023	
7.72984	 -5.279541	
7.80141	 -5.297129	
7.87298	 -5.249023	
7.94456	 -5.187988	
8.01613	 -5.291846	
8.0877	 -5.264282	
8.15927	 -5.279541	
8.23085	 -5.240920	
8.30242	 -5.294800	
8.37399	 -5.325317	
8.44556	 -5.126953	
8.51714	 -5.244614	
8.58871	 -5.168112	
8.66028	 -5.111694	
8.73185	 -5.187988	
8.80343	 -5.091660	
8.875	 -5.071368	
8.94657	 -5.096436	
9.01815	 -5.142212	
9.08972	 -5.212432	
9.16129	 -5.221201	
9.23286	 -5.307779	
9.30444	 -5.240462	
9.37601	 -5.218506	
9.44758	 -5.257168	
9.51915	 -5.264897	
9.59073	 -5.294600	
9.6623	 -5.264282	
9.73387	 -5.264282	
9.80544	 -5.264282	
9.87702	 -5.239197	
9.94859	 -5.181299	
10.0202	 -5.194469	
10.0917	 -5.111694	
10.1633	 -5.111694	
10.2349	 -5.243166	
10.3065	 -5.252985	
10.378	 -5.304618	
10.4496	 -5.289567	
10.5212	 -5.182963	
10.5927	 -5.208064	
10.6643	 -5.203247	
10.7359	 -5.198846	
10.8075	 -5.104821	
10.879	 -5.169425	
10.9506	 -5.184212	
11.0222	 -5.264282	
11.0937	 -5.172729	
11.1653	 -5.157471	
11.2369	 -5.132842	
11.3085	 -5.142212	
11.38	 -5.121896	
11.4516	 -5.271244	
11.5232	 -5.159583	
11.5948	 -5.201343	
11.6663	 -5.140515	
11.7379	 -5.100901	
11.8095	 -5.142212	
